<?xml version="1.0" encoding="UTF-8" standalone="no"?>
<!-- Created with Inkscape (http://www.inkscape.org/) -->

<svg
   width="210mm"
   height="297mm"
   viewBox="0 0 210 297"
   version="1.1"
   id="svg1"
   inkscape:version="1.3 (0e150ed6c4, 2023-07-21)"
   sodipodi:docname="LightningBoltIcon.svg"
   xmlns:inkscape="http://www.inkscape.org/namespaces/inkscape"
   xmlns:sodipodi="http://sodipodi.sourceforge.net/DTD/sodipodi-0.dtd"
   xmlns="http://www.w3.org/2000/svg"
   xmlns:svg="http://www.w3.org/2000/svg">
  <sodipodi:namedview
     id="namedview1"
     pagecolor="#505050"
     bordercolor="#eeeeee"
     borderopacity="1"
     inkscape:showpageshadow="0"
     inkscape:pageopacity="0"
     inkscape:pagecheckerboard="0"
     inkscape:deskcolor="#d1d1d1"
     inkscape:document-units="mm"
     inkscape:zoom="0.51717104"
     inkscape:cx="77.343852"
     inkscape:cy="683.52629"
     inkscape:window-width="1920"
     inkscape:window-height="1017"
     inkscape:window-x="-8"
     inkscape:window-y="-8"
     inkscape:window-maximized="1"
     inkscape:current-layer="layer1" />
  <defs
     id="defs1">
    <inkscape:path-effect
       effect="powerstroke"
       id="path-effect92"
       is_visible="true"
       lpeversion="1.3"
       scale_width="1"
       interpolator_type="CentripetalCatmullRom"
       interpolator_beta="0.2"
       start_linecap_type="zerowidth"
       end_linecap_type="zerowidth"
       offset_points="1.1764044,3.2575753 | 47.990796,3.1515115 | 95.8,0.63249999"
       linejoin_type="round"
       miter_limit="4"
       not_jump="false"
       sort_points="true"
       message="&lt;b&gt;Ctrl + click&lt;/b&gt; on existing node and move it" />
    <filter
       inkscape:collect="always"
       style="color-interpolation-filters:sRGB;"
       id="filter92"
       x="-0.00040479625"
       y="-0.00015690065"
       width="1.0008096"
       height="1.0003138"
       inkscape:label="Roughen">
      <feGaussianBlur
         inkscape:collect="always"
         stdDeviation="0.014897242"
         id="feGaussianBlur92"
         result="fbSourceGraphic" />
      <feColorMatrix
         result="fbSourceGraphicAlpha"
         in="fbSourceGraphic"
         values="0 0 0 -1 0 0 0 0 -1 0 0 0 0 -1 0 0 0 0 1 0"
         id="feColorMatrix92" />
      <feTurbulence
         id="feTurbulence92"
         type="fractalNoise"
         numOctaves="5"
         seed="118"
         baseFrequency="0.344716 0.407209"
         result="turbulence"
         in="fbSourceGraphic" />
      <feDisplacementMap
         id="feDisplacementMap92"
         in="fbSourceGraphic"
         in2="turbulence"
         scale="6.38298"
         yChannelSelector="G"
         xChannelSelector="R" />
    </filter>
    <filter
       inkscape:collect="always"
       style="color-interpolation-filters:sRGB"
       id="filter92-7"
       x="-0.087467725"
       y="-0.033902841"
       width="1.1749355"
       height="1.0678057"
       inkscape:label="Roughen">
      <feGaussianBlur
         inkscape:collect="always"
         stdDeviation="3.2189723"
         id="feGaussianBlur92-1"
         result="fbSourceGraphic" />
      <feColorMatrix
         result="fbSourceGraphicAlpha"
         in="fbSourceGraphic"
         values="0 0 0 -1 0 0 0 0 -1 0 0 0 0 -1 0 0 0 0 1 0"
         id="feColorMatrix92-3" />
      <feTurbulence
         id="feTurbulence92-3"
         type="fractalNoise"
         numOctaves="5"
         seed="118"
         baseFrequency="0.344716 0.407209"
         result="turbulence" />
      <feDisplacementMap
         id="feDisplacementMap92-7"
         in="fbSourceGraphic"
         in2="turbulence"
         scale="6.38298"
         yChannelSelector="G"
         xChannelSelector="R" />
    </filter>
    <inkscape:path-effect
       effect="powerstroke"
       id="path-effect92-7"
       is_visible="true"
       lpeversion="1.3"
       scale_width="1"
       interpolator_type="CentripetalCatmullRom"
       interpolator_beta="0.2"
       start_linecap_type="zerowidth"
       end_linecap_type="zerowidth"
       offset_points="1.1764044,3.2575753 | 47.990796,3.1515115 | 95.8,0.63249999"
       linejoin_type="round"
       miter_limit="4"
       not_jump="false"
       sort_points="true"
       message="&lt;b&gt;Ctrl + click&lt;/b&gt; on existing node and move it" />
  </defs>
  <g
     inkscape:label="Layer 1"
     inkscape:groupmode="layer"
     id="layer1">
    <path
       style="mix-blend-mode:normal;fill:#5d62ff;fill-rule:nonzero;stroke:none;stroke-width:1.265;stroke-linecap:butt;stroke-linejoin:miter;stroke-dasharray:none;stroke-opacity:1;filter:url(#filter92);fill-opacity:1"
       d="m 133.849,34.0049 c -0.79741,0.04975 -2.38849,-0.596031 -4.59969,0.09947 a 0.16052532,0.94301763 45.951307 0 0 -0.71833,0.97823 c -0.16084,0.138513 -0.32201,0.289412 -0.48277,0.454081 -0.55936,0.572962 -1.18071,1.345082 -1.85924,2.301148 a 0.03159707,0.41371362 25.11168 0 0 -0.19255,0.5084 c -0.49541,0.974014 -1.01794,2.104123 -1.56557,3.378939 a 4.991255,2.3315358 59.407395 0 0 0.33234,3.41759 c 0.23398,0.593021 0.48571,1.21146 0.75457,1.854393 0.0112,-0.117522 -0.0794,0.689317 -0.16695,1.528447 -0.0755,0.186337 -0.30746,0.770221 -0.54231,1.369127 0.20414,-0.175696 -0.45203,0.384642 -1.12262,0.96236 -0.16642,0.08133 -0.80852,0.399317 -1.46127,0.724932 -0.74579,0.03332 -1.50408,0.06922 -2.27437,0.107615 a 5.0377675,5.9754277 27.665091 0 0 -3.25961,1.330312 c -0.40028,0.331155 -0.80424,0.666474 -1.21179,1.005839 -0.51287,0.06034 -1.0302,0.121918 -1.55185,0.184689 a 4.7726251,6.1312034 36.52583 0 0 -1.59281,0.444015 c -0.8072,0.353871 -1.62508,0.714487 -2.45309,1.081505 -0.86031,0.21132 -1.73083,0.426788 -2.611,0.646184 a 6.0441907,5.0734647 18.117581 0 0 -1.47933,0.594456 c -0.74564,0.433758 -1.49867,0.873359 -2.25868,1.318492 -0.24105,0.07767 -1.11603,0.361843 -1.99893,0.649884 -0.86411,0.1301 -1.735457,0.26234 -2.613608,0.396595 a 5.7859021,5.3341074 10.871242 0 0 -3.835014,2.37801 c -0.496171,0.747881 -0.995605,1.502645 -1.498072,2.263821 -0.556185,0.628469 -1.115579,1.261803 -1.677952,1.899668 a 1.6746522,4.7510012 54.844837 0 0 -0.777818,1.093359 c -0.252268,0.487069 -0.505266,0.976181 -0.758956,1.467242 -0.413802,0.239473 -0.828685,0.479784 -1.244599,0.720896 a 3.1315036,5.7230093 79.305512 0 0 -1.510024,1.239509 c -0.491102,0.607643 -0.983925,1.218092 -1.47834,1.831144 0.72931,-0.401908 0.444083,-0.244772 0.158466,-0.08735 -0.269202,-0.102839 -0.538689,-0.205746 -0.808452,-0.30872 a 5.5696016,4.4792387 41.966031 0 0 -3.352237,-0.184998 c -1.079969,0.335318 -2.163889,0.672448 -3.25118,1.011142 a 1.9390938,4.7860978 87.228812 0 0 -1.422317,0.658004 c -0.934347,0.6571 -1.871419,1.316709 -2.810743,1.978415 a 4.3380863,5.3926562 75.36626 0 0 -1.997318,2.694147 c -0.303944,1.101801 -0.608292,2.206622 -0.912942,3.313855 l 5.105787,-3.451445 c -1.111349,-0.06876 -2.225039,-0.137308 -3.34048,-0.205682 a 5.2945976,3.5343198 23.984806 0 0 -2.412436,0.414083 c -0.944131,0.461523 -1.889531,0.923948 -2.835782,1.387014 -0.977337,0.324697 -1.95544,0.649823 -2.933933,0.975211 a 4.2497086,4.9085877 88.794344 0 0 -2.916103,2.634041 c -0.425592,1.09614 -0.851245,2.192888 -1.276793,3.289654 a 3.7841805,4.9488517 41.814001 0 0 -0.218495,2.832895 c 0.156869,0.567939 0.313764,1.135865 0.470654,1.703704 -0.24518,0.44646 -0.490267,0.892758 -0.735243,1.338846 a 4.2319834,4.4626505 30.915583 0 0 1.284172,5.761714 c 0.764824,0.502332 1.529129,1.004331 2.292745,1.505901 -0.08372,-0.332228 0.258206,1.024254 0.59931,2.377974 0.107374,0.69997 0.258123,1.68315 0.408516,2.6646 -0.431145,0.83273 -0.861549,1.66382 -1.291125,2.49305 a 3.8874161,4.0398282 23.076462 0 0 2.142414,5.6334 c 0.941414,0.31361 1.880449,0.62658 2.816799,0.93884 0.0056,0.006 0.755463,0.85267 1.502232,1.6961 0.414382,0.96825 0.826927,1.93295 1.237442,2.89371 a 3.8500447,1.9403493 84.908905 0 0 0.675331,1.08757 c 0.552983,0.59233 1.104014,1.18285 1.652948,1.77144 0.01912,-0.55966 -0.01502,0.44401 -0.04935,1.44291 -0.587064,0.76567 -1.171526,1.52737 -1.75322,2.28483 a 3.3170929,3.6068277 53.818234 0 0 -0.619522,3.12469 c 0.293629,0.95359 0.585261,1.90209 0.874762,2.84518 -0.357953,0.89192 -0.71414,1.77821 -1.068467,2.65854 a 3.1240163,3.5020226 43.052247 0 0 -0.05612,2.44022 c 0.471627,1.22565 0.937741,2.43993 1.397904,3.64197 a 0.24494859,0.00395617 69.320395 0 0 0.06153,0.15536 c 0.510094,1.15276 1.013889,2.29408 1.51093,3.42316 0.396604,1.31932 0.787405,2.62382 1.17201,3.91252 a 3.105454,3.2570928 2.1069574 0 0 1.811821,2.04589 c 1.335296,0.55462 2.651906,1.10326 3.948577,1.64551 0.01222,0.005 0.02444,0.0102 0.03666,0.0153 1.086909,0.45454 2.190412,0.91649 3.309633,1.38547 0.763151,0.88618 1.536014,1.78417 2.31808,2.69334 a 3.1904671,3.0033891 76.278137 0 0 1.484191,0.96415 c 1.326642,0.38429 2.672072,0.77448 4.035056,1.17017 a 2.8251189,1.1394727 34.670731 0 0 0.39194,0.0884 c 1.345909,0.20639 2.708497,0.4157 4.086636,0.62773 1.440478,0.29779 2.896713,0.59914 4.367587,0.90379 a 3.0969775,3.001967 37.28579 0 0 1.94318,-0.23246 c 1.3534,-0.65171 2.72042,-1.30969 4.10004,-1.97348 a 3.1813267,2.8460315 6.9133363 0 0 0.81137,-0.56607 c 0.99562,-0.97671 2.00005,-1.96177 3.01258,-2.95453 0.76253,-0.65435 1.61282,-1.38387 2.46805,-2.11749 0.17998,-0.0168 1.32935,-0.12355 2.48489,-0.23083 0.61026,0.23386 1.88936,0.72419 3.17544,1.21728 1.10366,0.47034 2.27018,0.96756 3.44196,1.46708 1.05132,0.69115 2.10721,1.38537 3.16712,2.08228 a 3.2429361,2.3647447 64.952684 0 0 0.41744,0.22999 c 1.06604,0.47787 2.13555,0.95734 3.20814,1.4382 0.1436,0.21936 0.76776,1.17286 1.39338,2.12859 -0.0581,1.12552 -0.11624,2.25341 -0.1745,3.38329 a 2.907624,2.9890263 31.841395 0 0 0.3362,1.53324 c 0.67877,1.28135 1.35909,2.56558 2.04061,3.85198 a 2.2555039,3.2033529 3.0214748 0 0 0.23609,0.37596 c 0.68024,0.91675 1.36146,1.83475 2.0434,2.75367 0.14454,1.12876 0.28925,2.25847 0.43409,3.38874 a 2.8970528,2.948344 16.490855 0 0 0.97624,1.83554 c 0.8069,0.7023 1.61419,1.40488 2.42164,2.10752 0.1049,1.06079 0.20986,2.12152 0.31484,3.18187 a 2.8662891,2.9389075 20.859206 0 0 0.70972,1.63818 c 0.78337,0.88654 1.56652,1.77272 2.34922,2.65827 -0.004,0.0604 -0.0873,1.32894 -0.17049,2.596 -0.76302,0.91307 -1.52495,1.82501 -2.28552,2.73551 a 2.7865827,2.9373618 69.683527 0 0 -0.60586,1.23168 c -0.25825,1.19797 -0.51594,2.39389 -0.77294,3.58734 -0.26546,0.26195 -1.14112,1.12635 -2.01445,1.98867 -1.21425,0.17704 -2.42516,0.35376 -3.63229,0.53011 a 2.8413041,2.7961284 6.6139406 0 0 -2.21301,1.72445 c -0.53816,1.33181 -1.07399,2.65858 -1.60718,3.97958 -0.63248,1.28188 -1.26186,2.55813 -1.88774,3.82803 a 2.5498389,2.9418131 56.612573 0 0 -0.28246,1.0052 c -0.1064,1.33017 -0.21193,2.65355 -0.31651,3.96938 -0.26338,1.29846 -0.52488,2.5894 -0.78431,3.87208 a 0.17543032,1.1623027 17.820709 0 0 -0.0392,0.24084 c -0.15045,1.35922 -0.29946,2.70924 -0.4469,4.04917 -0.16734,1.01763 -0.34801,2.11826 -0.52712,3.21146 -0.17668,0.19163 -0.90506,0.98243 -1.62801,1.76783 -1.06568,0.0777 -2.12323,0.15521 -3.17217,0.23243 a 2.6708712,2.5283397 15.204414 0 0 -1.90615,1.02316 c -0.80618,1.08258 -1.60282,2.1535 -2.38922,3.2119 a 1.8708145,2.8027652 61.640625 0 0 -0.38852,0.73323 c -0.33793,1.04117 -0.67193,2.07191 -1.00178,3.09161 -0.22801,0.17479 -1.09081,0.83735 -1.94327,1.49266 -1.07304,-0.12973 -2.1327,-0.25721 -3.17831,-0.38235 a 2.468138,2.3425181 19.02813 0 0 -2.33155,1.06137 c -0.67299,1.05522 -1.3335,2.09287 -1.98081,3.11189 -0.90476,0.82989 -1.79092,1.64438 -2.65739,2.44258 l 0.0414,-0.0358 c -0.96699,0.85021 -1.90891,1.68073 -2.824218,2.49032 -0.997465,0.7663 -1.96506,1.51228 -2.901002,2.23674 a 1.4633361,2.3060594 72.291667 0 0 -0.646101,0.77289 c -0.497567,1.0942 -0.977151,2.1544 -1.437757,3.17868 -0.617651,0.50714 -1.595201,1.31499 -2.522739,2.08684 -0.940623,0.54011 -2.014658,1.16195 -3.024418,1.75222 -1.281267,-0.13802 -2.468134,-0.25859 -3.554636,-0.36063 a 1.5925588,1.3171729 14.050467 0 0 -1.495017,0.71446 c -0.686874,1.36937 -1.264242,2.56272 -1.722759,3.5649 -1.052518,0.95141 -1.75106,1.6609 -2.057752,2.10236 -0.34911,0.50252 -0.238351,0.82571 -0.286021,0.99085 0.171803,0.005 0.44545,0.20982 1.030819,0.0317 0.556587,-0.16941 1.552812,-0.67943 2.94244,-1.49452 a 0.11766407,0.7277261 32.853422 0 0 0.319281,-0.35412 c 0.503739,-0.69789 1.075114,-1.52073 1.709858,-2.46074 0.998326,0.21089 2.075665,0.43158 3.227772,0.66153 a 1.2074178,1.8733975 47.65107 0 0 1.043395,-0.17548 c 1.183133,-0.56035 2.447631,-1.16687 3.788332,-1.81665 a 0.04250624,0.54832488 52.830031 0 0 0.264198,-0.16986 c 1.005205,-0.71566 2.060481,-1.47257 3.16279,-2.26823 a 1.2039996,2.1437162 9.858804 0 0 0.572025,-0.7019 c 0.497705,-0.94554 1.010778,-1.92545 1.538432,-2.93801 0.887448,-0.61344 1.799328,-1.24605 2.734358,-1.89686 a 0.00263776,0.19096295 51.041926 0 0 0.11915,-0.0936 c 0.95823,-0.7706 1.9419,-1.56422 2.94953,-2.37953 a 4.0800909e-4,0.06653758 49.511722 0 0 0.0414,-0.0357 c 0.98229,-0.83619 1.98682,-1.69344 3.01225,-2.57051 a 0.89934877,2.2040777 18.74065 0 0 0.40284,-0.46443 c 0.44846,-0.6551 0.90212,-1.31871 1.36079,-1.99052 0.90192,0.13364 1.81398,0.26831 2.73576,0.40397 a 2.3488968,2.5670353 32.942107 0 0 1.80676,-0.47059 c 1.12455,-0.82036 2.26613,-1.65436 3.42362,-2.50113 a 2.6638793,2.3320504 84.68112 0 0 0.87647,-1.21163 c 0.3869,-1.10519 0.77791,-2.2242 1.17279,-3.35619 0.32491,-0.41803 0.89531,-1.15253 1.47004,-1.89319 1.019,-0.0565 2.04583,-0.11372 3.08004,-0.17171 a 2.5565516,2.7176362 21.453891 0 0 1.75918,-0.83139 c 0.9671,-1.01669 1.94315,-2.04366 2.92747,-3.0801 a 2.7873234,2.5414086 74.057893 0 0 0.68302,-1.37499 c 0.2411,-1.34259 0.48377,-2.69687 0.72787,-4.06187 a 0.01901906,0.40116208 5.4944159 0 0 0.0206,-0.14296 c 0.16265,-1.30966 0.32607,-2.62908 0.49018,-3.95745 0.28101,-1.30437 0.56349,-2.61746 0.8473,-3.93844 a 2.0244644,0.58457853 82.227761 0 0 0.0483,-0.32955 c 0.10784,-1.1849 0.21596,-2.37599 0.32433,-3.57272 0.57872,-1.14583 1.15984,-2.29701 1.74312,-3.453 a 0.17729356,1.1779513 15.817721 0 0 0.0864,-0.19063 c 0.35044,-0.84638 0.70178,-1.69524 1.05394,-2.54638 0.9903,-0.13698 1.98296,-0.2744 2.97776,-0.41222 a 2.7832446,2.8861109 19.775601 0 0 1.58677,-0.78298 c 1.09805,-1.06914 2.19955,-2.14197 3.30387,-3.21787 a 2.9069258,2.7932791 75.092775 0 0 0.78936,-1.42695 c 0.27386,-1.23247 0.54819,-2.46777 0.82289,-3.70541 0.81953,-0.9692 1.64035,-1.94014 2.46217,-2.91244 a 2.9181556,2.8371255 67.781347 0 0 0.66846,-1.6566 c 0.11168,-1.57554 0.22337,-3.15355 0.33502,-4.73318 a 2.9149331,2.8672197 26.757039 0 0 -0.71364,-2.10647 c -0.83373,-0.95253 -1.6682,-1.90576 -2.50311,-2.85939 -0.10706,-1.13809 -0.21423,-2.27649 -0.32145,-3.41482 a 2.9373135,2.8879376 18.308891 0 0 -0.9823,-1.91325 c -0.81205,-0.71322 -1.62411,-1.42635 -2.43592,-2.13921 -0.12611,-1.02058 -0.2522,-2.0406 -0.37822,-3.05976 a 2.9797175,2.8807208 24.153109 0 0 -0.55084,-1.37616 c -0.78306,-1.06474 -1.56533,-2.12828 -2.3464,-3.19012 -0.4483,-0.85444 -0.99651,-1.89922 -1.54377,-2.94217 0.0657,-1.18422 0.13126,-2.36616 0.19666,-3.54537 a 2.9869496,2.9276926 30.556726 0 0 -0.47574,-1.77337 c -0.79707,-1.22794 -1.59187,-2.45237 -2.38393,-3.67261 a 2.92911,3.0018351 86.282672 0 0 -1.26627,-1.08457 c -1.2594,-0.57049 -2.51466,-1.13912 -3.76516,-1.70563 -1.06839,-0.70903 -2.13259,-1.41533 -3.19204,-2.11854 a 2.4612564,3.2400876 81.110065 0 0 -0.46842,-0.25255 c -1.25004,-0.53944 -2.49408,-1.07636 -3.73136,-1.61046 a 0.61984193,0.04474279 18.032823 0 0 -0.10195,-0.0415 c -1.29895,-0.50482 -2.59072,-1.00695 -3.87449,-1.5061 a 2.9286107,3.0695992 54.318654 0 0 -1.35159,-0.18929 c -1.38897,0.12211 -2.76925,0.24334 -4.13993,0.36357 a 2.9694667,3.0536985 22.981644 0 0 -1.68478,0.70889 c -1.10379,0.93712 -2.19983,1.86745 -3.28739,2.79035 a 0.29790985,1.5623242 36.828057 0 0 -0.14818,0.13519 c -0.9163,0.88852 -1.82621,1.77065 -2.72925,2.64589 -0.6191,0.2935 -1.67575,0.79426 -2.72458,1.29115 -1.15898,-0.2479 -2.308538,-0.49397 -3.448123,-0.73809 a 0.74122946,0.0615659 5.6793351 0 0 -0.15347,-0.0283 c -1.326504,-0.21466 -2.638519,-0.42728 -3.935027,-0.63771 -0.872648,-0.26166 -1.914553,-0.57431 -2.945249,-0.88387 -0.739359,-0.87684 -1.469724,-1.74347 -2.190616,-2.59937 a 2.9434258,3.2701056 84.327361 0 0 -1.155192,-0.84913 c -1.340733,-0.57954 -2.658853,-1.14992 -3.952873,-1.71055 -0.01218,-0.005 -0.02434,-0.0105 -0.03649,-0.0158 -0.829286,-0.35927 -1.666188,-0.72265 -2.5104,-1.08998 -0.251243,-0.90179 -0.503969,-1.81134 -0.758117,-2.72829 a 1.3976648,0.20737202 61.970514 0 0 -0.131171,-0.36858 c -0.473325,-1.14971 -0.950882,-2.31306 -1.432398,-3.48913 -0.26591,-0.7576 -0.545738,-1.55638 -0.826941,-2.36052 0.380317,-0.86806 0.763473,-1.74142 1.149311,-2.6198 a 3.6129394,3.1186744 52.534152 0 0 0.131678,-2.25984 c -0.196939,-0.72616 -0.394529,-1.45575 -0.592742,-2.18862 0.496796,-0.60094 0.995816,-1.20419 1.496942,-1.80963 a 3.8240692,3.1252809 71.540842 0 0 0.766955,-2.01915 c 0.09746,-1.34765 0.196231,-2.7042 0.296174,-4.0688 a 3.8495789,3.3469195 29.63192 0 0 -0.916431,-2.60764 c -0.672315,-0.78473 -1.347544,-1.57343 -2.025449,-2.36578 -0.383145,-1.01731 -0.76762,-2.03913 -1.153302,-3.065 a 3.75785,1.6895304 34.718267 0 0 -0.624368,-1.03613 c -0.81874,-1.01124 -1.640836,-2.02727 -2.465874,-3.04747 a 3.0579191,4.2671116 89.117445 0 0 -1.649333,-1.14392 c -1.215254,-0.46738 -2.43507,-0.93687 -3.658796,-1.40815 l 2.142414,5.6334 c 0.697244,-1.21553 1.396981,-2.43489 2.098778,-3.65743 a 4.4042873,3.5139752 61.990443 0 0 0.46119,-2.47027 c -0.151831,-1.39382 -0.303874,-2.79139 -0.456109,-4.19197 a 0.66955234,0.02774635 77.4415 0 0 -0.06974,-0.38815 C 72.65221,98.721031 72.362054,97.316194 72.071508,95.909108 A 4.5367,3.848807 15.50618 0 0 70.341534,93.36195 c -1.161902,-0.837489 -2.325602,-1.676362 -3.490526,-2.516135 l 1.284172,5.761714 c 0.606302,-0.9747 1.213255,-1.950423 1.820494,-2.926692 a 4.7766951,3.9460446 58.656537 0 0 0.476633,-3.300763 c -0.130378,-0.595863 -0.260805,-1.191892 -0.391271,-1.787999 -0.394854,0.87767 -0.22558,0.501433 -0.05633,0.125211 0.475361,-0.131035 0.950553,-0.262059 1.42553,-0.393066 a 0.07968,1.1702136 65.396545 0 0 0.585286,-0.221256 c 0.599881,-0.254151 1.199374,-0.50822 1.798369,-0.762173 0.732705,0.08428 1.464587,0.168323 2.195477,0.252104 a 4.721934,5.0386339 12.800233 0 0 5.105787,-3.451445 c 0.160668,-0.485706 0.321121,-0.970979 0.481336,-1.455772 -0.688243,0.435762 0.02219,-0.01395 0.730895,-0.462869 -0.161621,0.04192 0.325387,-0.08433 0.81162,-0.21048 0.535777,0.233384 1.070479,0.466126 1.604029,0.698182 a 4.8550101,5.5188032 45.98241 0 0 4.38828,-0.20532 c 0.985024,-0.48603 1.965346,-0.970466 2.940367,-1.453089 a 3.2479272,5.6974828 21.578498 0 0 1.595446,-1.279822 c 0.480715,-0.545871 0.959544,-1.090093 1.436348,-1.632538 0.668775,-0.350821 1.334414,-0.700503 1.996688,-1.048961 a 4.6147263,5.9043347 6.7495038 0 0 2.151383,-2.169477 c 0.389919,-0.688487 0.777412,-1.373787 1.162312,-2.055669 0.56347,-0.593942 1.12292,-1.184688 1.67805,-1.772008 a 0.33803528,2.3567966 30.238724 0 0 0.48642,-0.613688 c 0.0919,-0.129987 0.18373,-0.259818 0.27538,-0.389491 0.25862,-0.03323 0.51657,-0.06646 0.77385,-0.0997 a 1.3088551,4.3171369 60.407821 0 0 0.91258,-0.206097 c 1.02242,-0.31098 2.03347,-0.620157 3.0323,-0.927387 a 3.3896793,5.9907912 36.752143 0 0 1.12333,-0.494182 c 0.69252,-0.393149 1.37841,-0.783674 2.05732,-1.171432 0.78766,-0.191307 1.56679,-0.3818 2.33695,-0.571432 a 5.8661264,5.4213334 23.854009 0 0 0.95161,-0.32561 c 0.73454,-0.327311 1.46017,-0.652122 2.17645,-0.974307 0.7781,-0.103304 1.54582,-0.206807 2.30268,-0.310514 a 5.9501631,5.2211217 17.393047 0 0 2.95919,-1.30967 c 0.39703,-0.347342 0.78988,-0.692006 1.17843,-1.033913 0.46145,-0.04079 0.91807,-0.08192 1.36975,-0.123406 a 6.000719,3.5143531 14.411318 0 0 2.22638,-0.636064 c 1.03552,-0.584035 2.04045,-1.156629 3.01296,-1.717072 a 0.7703789,3.4846044 67.038661 0 0 1.132,-0.8053 c 0.85035,-0.841114 1.6686,-1.65952 2.45279,-2.453821 a 2.7968604,5.6026383 59.363208 0 0 1.42202,-2.20362 c 0.33096,-1.162163 0.64056,-2.28044 0.9275,-3.352095 a 0.33300211,2.4904979 17.920079 0 0 0.25902,-1.424696 c -0.0284,-1.223642 -0.0673,-2.385071 -0.11744,-3.480269 a 1.496454,4.5279524 5.3888836 0 0 -0.56251,-2.45617 c -0.45012,-0.70836 -0.88699,-1.382094 -1.31004,-2.019691 0.0692,-0.467722 0.12884,-0.913944 0.17875,-1.338032 l -0.19255,0.5084 c 0.28248,-1.137834 0.46277,-2.112379 0.53248,-2.91007 0.02,-0.229256 0.0294,-0.449843 0.0295,-0.662101 l -0.71833,0.978229 c 0.91751,-2.128689 0.43745,-3.777353 0.56831,-4.565527 z"
       id="path1"
       inkscape:path-effect="#path-effect92"
       inkscape:original-d="m 133.849,34.0049 -2.584,2.3325 -1.452,3.1637 -1.068,3.5295 1.728,3.2576 -0.13,3.471 -1.1,3.2945 -2.544,2.3553 -3.059,1.6307 -3.317,0.2219 -2.525,2.1623 -3.165,0.3982 -2.914,1.2963 -3.099,0.761 -2.765,1.5956 -3.024,0.9537 -3.14,0.4384 -1.7019,2.4908 -2.0364,2.2256 -1.4915,2.7587 -2.7462,1.5146 -2.1127,2.5075 -2.9062,1.5185 -3.151,-1.2878 -3.2734,0.9332 -2.8574,1.9086 -0.9957,3.2888 -3.3327,-0.2939 -3.0439,1.3884 -3.3752,1.0253 -1.3622,3.2539 0.8274,3.3446 -1.7398,2.9739 3.5435,2.4392 0.961,4.193 0.5475,4.18 -2.0189,3.701 3.689,1.324 2.5326,2.991 1.4328,3.566 2.5613,2.866 -0.2177,4.073 -2.5417,3.191 1.1434,3.959 -1.5953,3.799 1.3433,3.662 1.5283,3.589 1.1981,4.147 3.9724,1.691 3.9629,1.687 2.793,3.279 4.0295,1.189 4.1498,0.655 4.452,0.937 4.106,-1.961 3.087,-3.01 3.28,-2.799 4.139,-0.374 3.878,1.497 3.735,1.602 3.391,2.24 3.992,1.799 2.391,3.668 -0.233,4.353 2.033,3.856 2.489,3.369 0.523,4.156 3.283,2.87 0.419,4.341 3.134,3.563 -0.323,4.734 -2.903,3.454 -0.964,4.407 -3.293,3.229 -4.566,0.649 -1.659,4.058 -1.958,3.924 -0.351,4.118 -0.845,4.046 -0.48,4.099 -0.698,4.067 -2.903,3.103 -4.24,0.273 -2.422,3.187 -1.277,3.794 -3.393,2.542 -4.203,-0.564 -2.179,3.304 -2.964,2.625 -2.896,2.443 -3.0584,2.237 -1.7034,3.497 -3.0813,2.374 -3.7115,1.962 -4.1493,-0.64 -2.0454,3.522 -3.2921,2.398" />
    <path
       style="mix-blend-mode:normal;fill:#003e5a;fill-rule:nonzero;stroke:none;stroke-width:1.265;stroke-linecap:butt;stroke-linejoin:miter;stroke-dasharray:none;stroke-opacity:1;filter:url(#filter92-7);fill-opacity:1"
       d="m 133.849,34.0049 c -0.79741,0.04975 -2.38849,-0.596031 -4.59969,0.09947 a 0.16052532,0.94301763 45.951307 0 0 -0.71833,0.97823 c -0.16084,0.138513 -0.32201,0.289412 -0.48277,0.454081 -0.55936,0.572962 -1.18071,1.345082 -1.85924,2.301148 a 0.03159707,0.41371362 25.11168 0 0 -0.19255,0.5084 c -0.49541,0.974014 -1.01794,2.104123 -1.56557,3.378939 a 4.991255,2.3315358 59.407395 0 0 0.33234,3.41759 c 0.23398,0.593021 0.48571,1.21146 0.75457,1.854393 0.0112,-0.117522 -0.0794,0.689317 -0.16695,1.528447 -0.0755,0.186337 -0.30746,0.770221 -0.54231,1.369127 0.20414,-0.175696 -0.45203,0.384642 -1.12262,0.96236 -0.16642,0.08133 -0.80852,0.399317 -1.46127,0.724932 -0.74579,0.03332 -1.50408,0.06922 -2.27437,0.107615 a 5.0377675,5.9754277 27.665091 0 0 -3.25961,1.330312 c -0.40028,0.331155 -0.80424,0.666474 -1.21179,1.005839 -0.51287,0.06034 -1.0302,0.121918 -1.55185,0.184689 a 4.7726251,6.1312034 36.52583 0 0 -1.59281,0.444015 c -0.8072,0.353871 -1.62508,0.714487 -2.45309,1.081505 -0.86031,0.21132 -1.73083,0.426788 -2.611,0.646184 a 6.0441907,5.0734647 18.117581 0 0 -1.47933,0.594456 c -0.74564,0.433758 -1.49867,0.873359 -2.25868,1.318492 -0.24105,0.07767 -1.11603,0.361843 -1.99893,0.649884 -0.86411,0.1301 -1.735457,0.26234 -2.613608,0.396595 a 5.7859021,5.3341074 10.871242 0 0 -3.835014,2.37801 c -0.496171,0.747881 -0.995605,1.502645 -1.498072,2.263821 -0.556185,0.628469 -1.115579,1.261803 -1.677952,1.899668 a 1.6746522,4.7510012 54.844837 0 0 -0.777818,1.093359 c -0.252268,0.487069 -0.505266,0.976181 -0.758956,1.467242 -0.413802,0.239473 -0.828685,0.479784 -1.244599,0.720896 a 3.1315036,5.7230093 79.305512 0 0 -1.510024,1.239509 c -0.491102,0.607643 -0.983925,1.218092 -1.47834,1.831144 0.72931,-0.401908 0.444083,-0.244772 0.158466,-0.08735 -0.269202,-0.102839 -0.538689,-0.205746 -0.808452,-0.30872 a 5.5696016,4.4792387 41.966031 0 0 -3.352237,-0.184998 c -1.079969,0.335318 -2.163889,0.672448 -3.25118,1.011142 a 1.9390938,4.7860978 87.228812 0 0 -1.422317,0.658004 c -0.934347,0.6571 -1.871419,1.316709 -2.810743,1.978415 a 4.3380863,5.3926562 75.36626 0 0 -1.997318,2.694147 c -0.303944,1.101801 -0.608292,2.206622 -0.912942,3.313855 l 5.105787,-3.451445 c -1.111349,-0.06876 -2.225039,-0.137308 -3.34048,-0.205682 a 5.2945976,3.5343198 23.984806 0 0 -2.412436,0.414083 c -0.944131,0.461523 -1.889531,0.923948 -2.835782,1.387014 -0.977337,0.324697 -1.95544,0.649823 -2.933933,0.975211 a 4.2497086,4.9085877 88.794344 0 0 -2.916103,2.634041 c -0.425592,1.09614 -0.851245,2.192888 -1.276793,3.289654 a 3.7841805,4.9488517 41.814001 0 0 -0.218495,2.832895 c 0.156869,0.567939 0.313764,1.135865 0.470654,1.703704 -0.24518,0.44646 -0.490267,0.892758 -0.735243,1.338846 a 4.2319834,4.4626505 30.915583 0 0 1.284172,5.761714 c 0.764824,0.502332 1.529129,1.004331 2.292745,1.505901 -0.08372,-0.332228 0.258206,1.024254 0.59931,2.377974 0.107374,0.69997 0.258123,1.68315 0.408516,2.6646 -0.431145,0.83273 -0.861549,1.66382 -1.291125,2.49305 a 3.8874161,4.0398282 23.076462 0 0 2.142414,5.6334 c 0.941414,0.31361 1.880449,0.62658 2.816799,0.93884 0.0056,0.006 0.755463,0.85267 1.502232,1.6961 0.414382,0.96825 0.826927,1.93295 1.237442,2.89371 a 3.8500447,1.9403493 84.908905 0 0 0.675331,1.08757 c 0.552983,0.59233 1.104014,1.18285 1.652948,1.77144 0.01912,-0.55966 -0.01502,0.44401 -0.04935,1.44291 -0.587064,0.76567 -1.171526,1.52737 -1.75322,2.28483 a 3.3170929,3.6068277 53.818234 0 0 -0.619522,3.12469 c 0.293629,0.95359 0.585261,1.90209 0.874762,2.84518 -0.357953,0.89192 -0.71414,1.77821 -1.068467,2.65854 a 3.1240163,3.5020226 43.052247 0 0 -0.05612,2.44022 c 0.471627,1.22565 0.937741,2.43993 1.397904,3.64197 a 0.24494859,0.00395617 69.320395 0 0 0.06153,0.15536 c 0.510094,1.15276 1.013889,2.29408 1.51093,3.42316 0.396604,1.31932 0.787405,2.62382 1.17201,3.91252 a 3.105454,3.2570928 2.1069574 0 0 1.811821,2.04589 c 1.335296,0.55462 2.651906,1.10326 3.948577,1.64551 0.01222,0.005 0.02444,0.0102 0.03666,0.0153 1.086909,0.45454 2.190412,0.91649 3.309633,1.38547 0.763151,0.88618 1.536014,1.78417 2.31808,2.69334 a 3.1904671,3.0033891 76.278137 0 0 1.484191,0.96415 c 1.326642,0.38429 2.672072,0.77448 4.035056,1.17017 a 2.8251189,1.1394727 34.670731 0 0 0.39194,0.0884 c 1.345909,0.20639 2.708497,0.4157 4.086636,0.62773 1.440478,0.29779 2.896713,0.59914 4.367587,0.90379 a 3.0969775,3.001967 37.28579 0 0 1.94318,-0.23246 c 1.3534,-0.65171 2.72042,-1.30969 4.10004,-1.97348 a 3.1813267,2.8460315 6.9133363 0 0 0.81137,-0.56607 c 0.99562,-0.97671 2.00005,-1.96177 3.01258,-2.95453 0.76253,-0.65435 1.61282,-1.38387 2.46805,-2.11749 0.17998,-0.0168 1.32935,-0.12355 2.48489,-0.23083 0.61026,0.23386 1.88936,0.72419 3.17544,1.21728 1.10366,0.47034 2.27018,0.96756 3.44196,1.46708 1.05132,0.69115 2.10721,1.38537 3.16712,2.08228 a 3.2429361,2.3647447 64.952684 0 0 0.41744,0.22999 c 1.06604,0.47787 2.13555,0.95734 3.20814,1.4382 0.1436,0.21936 0.76776,1.17286 1.39338,2.12859 -0.0581,1.12552 -0.11624,2.25341 -0.1745,3.38329 a 2.907624,2.9890263 31.841395 0 0 0.3362,1.53324 c 0.67877,1.28135 1.35909,2.56558 2.04061,3.85198 a 2.2555039,3.2033529 3.0214748 0 0 0.23609,0.37596 c 0.68024,0.91675 1.36146,1.83475 2.0434,2.75367 0.14454,1.12876 0.28925,2.25847 0.43409,3.38874 a 2.8970528,2.948344 16.490855 0 0 0.97624,1.83554 c 0.8069,0.7023 1.61419,1.40488 2.42164,2.10752 0.1049,1.06079 0.20986,2.12152 0.31484,3.18187 a 2.8662891,2.9389075 20.859206 0 0 0.70972,1.63818 c 0.78337,0.88654 1.56652,1.77272 2.34922,2.65827 -0.004,0.0604 -0.0873,1.32894 -0.17049,2.596 -0.76302,0.91307 -1.52495,1.82501 -2.28552,2.73551 a 2.7865827,2.9373618 69.683527 0 0 -0.60586,1.23168 c -0.25825,1.19797 -0.51594,2.39389 -0.77294,3.58734 -0.26546,0.26195 -1.14112,1.12635 -2.01445,1.98867 -1.21425,0.17704 -2.42516,0.35376 -3.63229,0.53011 a 2.8413041,2.7961284 6.6139406 0 0 -2.21301,1.72445 c -0.53816,1.33181 -1.07399,2.65858 -1.60718,3.97958 -0.63248,1.28188 -1.26186,2.55813 -1.88774,3.82803 a 2.5498389,2.9418131 56.612573 0 0 -0.28246,1.0052 c -0.1064,1.33017 -0.21193,2.65355 -0.31651,3.96938 -0.26338,1.29846 -0.52488,2.5894 -0.78431,3.87208 a 0.17543032,1.1623027 17.820709 0 0 -0.0392,0.24084 c -0.15045,1.35922 -0.29946,2.70924 -0.4469,4.04917 -0.16734,1.01763 -0.34801,2.11826 -0.52712,3.21146 -0.17668,0.19163 -0.90506,0.98243 -1.62801,1.76783 -1.06568,0.0777 -2.12323,0.15521 -3.17217,0.23243 a 2.6708712,2.5283397 15.204414 0 0 -1.90615,1.02316 c -0.80618,1.08258 -1.60282,2.1535 -2.38922,3.2119 a 1.8708145,2.8027652 61.640625 0 0 -0.38852,0.73323 c -0.33793,1.04117 -0.67193,2.07191 -1.00178,3.09161 -0.22801,0.17479 -1.09081,0.83735 -1.94327,1.49266 -1.07304,-0.12973 -2.1327,-0.25721 -3.17831,-0.38235 a 2.468138,2.3425181 19.02813 0 0 -2.33155,1.06137 c -0.67299,1.05522 -1.3335,2.09287 -1.98081,3.11189 -0.90476,0.82989 -1.79092,1.64438 -2.65739,2.44258 l 0.0414,-0.0358 c -0.96699,0.85021 -1.90891,1.68073 -2.824218,2.49032 -0.997465,0.7663 -1.96506,1.51228 -2.901002,2.23674 a 1.4633361,2.3060594 72.291667 0 0 -0.646101,0.77289 c -0.497567,1.0942 -0.977151,2.1544 -1.437757,3.17868 -0.617651,0.50714 -1.595201,1.31499 -2.522739,2.08684 -0.940623,0.54011 -2.014658,1.16195 -3.024418,1.75222 -1.281267,-0.13802 -2.468134,-0.25859 -3.554636,-0.36063 a 1.5925588,1.3171729 14.050467 0 0 -1.495017,0.71446 c -0.686874,1.36937 -1.264242,2.56272 -1.722759,3.5649 -1.052518,0.95141 -1.75106,1.6609 -2.057752,2.10236 -0.34911,0.50252 -0.238351,0.82571 -0.286021,0.99085 0.171803,0.005 0.44545,0.20982 1.030819,0.0317 0.556587,-0.16941 1.552812,-0.67943 2.94244,-1.49452 a 0.11766407,0.7277261 32.853422 0 0 0.319281,-0.35412 c 0.503739,-0.69789 1.075114,-1.52073 1.709858,-2.46074 0.998326,0.21089 2.075665,0.43158 3.227772,0.66153 a 1.2074178,1.8733975 47.65107 0 0 1.043395,-0.17548 c 1.183133,-0.56035 2.447631,-1.16687 3.788332,-1.81665 a 0.04250624,0.54832488 52.830031 0 0 0.264198,-0.16986 c 1.005205,-0.71566 2.060481,-1.47257 3.16279,-2.26823 a 1.2039996,2.1437162 9.858804 0 0 0.572025,-0.7019 c 0.497705,-0.94554 1.010778,-1.92545 1.538432,-2.93801 0.887448,-0.61344 1.799328,-1.24605 2.734358,-1.89686 a 0.00263776,0.19096295 51.041926 0 0 0.11915,-0.0936 c 0.95823,-0.7706 1.9419,-1.56422 2.94953,-2.37953 a 4.0800909e-4,0.06653758 49.511722 0 0 0.0414,-0.0357 c 0.98229,-0.83619 1.98682,-1.69344 3.01225,-2.57051 a 0.89934877,2.2040777 18.74065 0 0 0.40284,-0.46443 c 0.44846,-0.6551 0.90212,-1.31871 1.36079,-1.99052 0.90192,0.13364 1.81398,0.26831 2.73576,0.40397 a 2.3488968,2.5670353 32.942107 0 0 1.80676,-0.47059 c 1.12455,-0.82036 2.26613,-1.65436 3.42362,-2.50113 a 2.6638793,2.3320504 84.68112 0 0 0.87647,-1.21163 c 0.3869,-1.10519 0.77791,-2.2242 1.17279,-3.35619 0.32491,-0.41803 0.89531,-1.15253 1.47004,-1.89319 1.019,-0.0565 2.04583,-0.11372 3.08004,-0.17171 a 2.5565516,2.7176362 21.453891 0 0 1.75918,-0.83139 c 0.9671,-1.01669 1.94315,-2.04366 2.92747,-3.0801 a 2.7873234,2.5414086 74.057893 0 0 0.68302,-1.37499 c 0.2411,-1.34259 0.48377,-2.69687 0.72787,-4.06187 a 0.01901906,0.40116208 5.4944159 0 0 0.0206,-0.14296 c 0.16265,-1.30966 0.32607,-2.62908 0.49018,-3.95745 0.28101,-1.30437 0.56349,-2.61746 0.8473,-3.93844 a 2.0244644,0.58457853 82.227761 0 0 0.0483,-0.32955 c 0.10784,-1.1849 0.21596,-2.37599 0.32433,-3.57272 0.57872,-1.14583 1.15984,-2.29701 1.74312,-3.453 a 0.17729356,1.1779513 15.817721 0 0 0.0864,-0.19063 c 0.35044,-0.84638 0.70178,-1.69524 1.05394,-2.54638 0.9903,-0.13698 1.98296,-0.2744 2.97776,-0.41222 a 2.7832446,2.8861109 19.775601 0 0 1.58677,-0.78298 c 1.09805,-1.06914 2.19955,-2.14197 3.30387,-3.21787 a 2.9069258,2.7932791 75.092775 0 0 0.78936,-1.42695 c 0.27386,-1.23247 0.54819,-2.46777 0.82289,-3.70541 0.81953,-0.9692 1.64035,-1.94014 2.46217,-2.91244 a 2.9181556,2.8371255 67.781347 0 0 0.66846,-1.6566 c 0.11168,-1.57554 0.22337,-3.15355 0.33502,-4.73318 a 2.9149331,2.8672197 26.757039 0 0 -0.71364,-2.10647 c -0.83373,-0.95253 -1.6682,-1.90576 -2.50311,-2.85939 -0.10706,-1.13809 -0.21423,-2.27649 -0.32145,-3.41482 a 2.9373135,2.8879376 18.308891 0 0 -0.9823,-1.91325 c -0.81205,-0.71322 -1.62411,-1.42635 -2.43592,-2.13921 -0.12611,-1.02058 -0.2522,-2.0406 -0.37822,-3.05976 a 2.9797175,2.8807208 24.153109 0 0 -0.55084,-1.37616 c -0.78306,-1.06474 -1.56533,-2.12828 -2.3464,-3.19012 -0.4483,-0.85444 -0.99651,-1.89922 -1.54377,-2.94217 0.0657,-1.18422 0.13126,-2.36616 0.19666,-3.54537 a 2.9869496,2.9276926 30.556726 0 0 -0.47574,-1.77337 c -0.79707,-1.22794 -1.59187,-2.45237 -2.38393,-3.67261 a 2.92911,3.0018351 86.282672 0 0 -1.26627,-1.08457 c -1.2594,-0.57049 -2.51466,-1.13912 -3.76516,-1.70563 -1.06839,-0.70903 -2.13259,-1.41533 -3.19204,-2.11854 a 2.4612564,3.2400876 81.110065 0 0 -0.46842,-0.25255 c -1.25004,-0.53944 -2.49408,-1.07636 -3.73136,-1.61046 a 0.61984193,0.04474279 18.032823 0 0 -0.10195,-0.0415 c -1.29895,-0.50482 -2.59072,-1.00695 -3.87449,-1.5061 a 2.9286107,3.0695992 54.318654 0 0 -1.35159,-0.18929 c -1.38897,0.12211 -2.76925,0.24334 -4.13993,0.36357 a 2.9694667,3.0536985 22.981644 0 0 -1.68478,0.70889 c -1.10379,0.93712 -2.19983,1.86745 -3.28739,2.79035 a 0.29790985,1.5623242 36.828057 0 0 -0.14818,0.13519 c -0.9163,0.88852 -1.82621,1.77065 -2.72925,2.64589 -0.6191,0.2935 -1.67575,0.79426 -2.72458,1.29115 -1.15898,-0.2479 -2.308538,-0.49397 -3.448123,-0.73809 a 0.74122946,0.0615659 5.6793351 0 0 -0.15347,-0.0283 c -1.326504,-0.21466 -2.638519,-0.42728 -3.935027,-0.63771 -0.872648,-0.26166 -1.914553,-0.57431 -2.945249,-0.88387 -0.739359,-0.87684 -1.469724,-1.74347 -2.190616,-2.59937 a 2.9434258,3.2701056 84.327361 0 0 -1.155192,-0.84913 c -1.340733,-0.57954 -2.658853,-1.14992 -3.952873,-1.71055 -0.01218,-0.005 -0.02434,-0.0105 -0.03649,-0.0158 -0.829286,-0.35927 -1.666188,-0.72265 -2.5104,-1.08998 -0.251243,-0.90179 -0.503969,-1.81134 -0.758117,-2.72829 a 1.3976648,0.20737202 61.970514 0 0 -0.131171,-0.36858 c -0.473325,-1.14971 -0.950882,-2.31306 -1.432398,-3.48913 -0.26591,-0.7576 -0.545738,-1.55638 -0.826941,-2.36052 0.380317,-0.86806 0.763473,-1.74142 1.149311,-2.6198 a 3.6129394,3.1186744 52.534152 0 0 0.131678,-2.25984 c -0.196939,-0.72616 -0.394529,-1.45575 -0.592742,-2.18862 0.496796,-0.60094 0.995816,-1.20419 1.496942,-1.80963 a 3.8240692,3.1252809 71.540842 0 0 0.766955,-2.01915 c 0.09746,-1.34765 0.196231,-2.7042 0.296174,-4.0688 a 3.8495789,3.3469195 29.63192 0 0 -0.916431,-2.60764 c -0.672315,-0.78473 -1.347544,-1.57343 -2.025449,-2.36578 -0.383145,-1.01731 -0.76762,-2.03913 -1.153302,-3.065 a 3.75785,1.6895304 34.718267 0 0 -0.624368,-1.03613 c -0.81874,-1.01124 -1.640836,-2.02727 -2.465874,-3.04747 a 3.0579191,4.2671116 89.117445 0 0 -1.649333,-1.14392 c -1.215254,-0.46738 -2.43507,-0.93687 -3.658796,-1.40815 l 2.142414,5.6334 c 0.697244,-1.21553 1.396981,-2.43489 2.098778,-3.65743 a 4.4042873,3.5139752 61.990443 0 0 0.46119,-2.47027 c -0.151831,-1.39382 -0.303874,-2.79139 -0.456109,-4.19197 a 0.66955234,0.02774635 77.4415 0 0 -0.06974,-0.38815 C 72.65221,98.721031 72.362054,97.316194 72.071508,95.909108 A 4.5367,3.848807 15.50618 0 0 70.341534,93.36195 c -1.161902,-0.837489 -2.325602,-1.676362 -3.490526,-2.516135 l 1.284172,5.761714 c 0.606302,-0.9747 1.213255,-1.950423 1.820494,-2.926692 a 4.7766951,3.9460446 58.656537 0 0 0.476633,-3.300763 c -0.130378,-0.595863 -0.260805,-1.191892 -0.391271,-1.787999 -0.394854,0.87767 -0.22558,0.501433 -0.05633,0.125211 0.475361,-0.131035 0.950553,-0.262059 1.42553,-0.393066 a 0.07968,1.1702136 65.396545 0 0 0.585286,-0.221256 c 0.599881,-0.254151 1.199374,-0.50822 1.798369,-0.762173 0.732705,0.08428 1.464587,0.168323 2.195477,0.252104 a 4.721934,5.0386339 12.800233 0 0 5.105787,-3.451445 c 0.160668,-0.485706 0.321121,-0.970979 0.481336,-1.455772 -0.688243,0.435762 0.02219,-0.01395 0.730895,-0.462869 -0.161621,0.04192 0.325387,-0.08433 0.81162,-0.21048 0.535777,0.233384 1.070479,0.466126 1.604029,0.698182 a 4.8550101,5.5188032 45.98241 0 0 4.38828,-0.20532 c 0.985024,-0.48603 1.965346,-0.970466 2.940367,-1.453089 a 3.2479272,5.6974828 21.578498 0 0 1.595446,-1.279822 c 0.480715,-0.545871 0.959544,-1.090093 1.436348,-1.632538 0.668775,-0.350821 1.334414,-0.700503 1.996688,-1.048961 a 4.6147263,5.9043347 6.7495038 0 0 2.151383,-2.169477 c 0.389919,-0.688487 0.777412,-1.373787 1.162312,-2.055669 0.56347,-0.593942 1.12292,-1.184688 1.67805,-1.772008 a 0.33803528,2.3567966 30.238724 0 0 0.48642,-0.613688 c 0.0919,-0.129987 0.18373,-0.259818 0.27538,-0.389491 0.25862,-0.03323 0.51657,-0.06646 0.77385,-0.0997 a 1.3088551,4.3171369 60.407821 0 0 0.91258,-0.206097 c 1.02242,-0.31098 2.03347,-0.620157 3.0323,-0.927387 a 3.3896793,5.9907912 36.752143 0 0 1.12333,-0.494182 c 0.69252,-0.393149 1.37841,-0.783674 2.05732,-1.171432 0.78766,-0.191307 1.56679,-0.3818 2.33695,-0.571432 a 5.8661264,5.4213334 23.854009 0 0 0.95161,-0.32561 c 0.73454,-0.327311 1.46017,-0.652122 2.17645,-0.974307 0.7781,-0.103304 1.54582,-0.206807 2.30268,-0.310514 a 5.9501631,5.2211217 17.393047 0 0 2.95919,-1.30967 c 0.39703,-0.347342 0.78988,-0.692006 1.17843,-1.033913 0.46145,-0.04079 0.91807,-0.08192 1.36975,-0.123406 a 6.000719,3.5143531 14.411318 0 0 2.22638,-0.636064 c 1.03552,-0.584035 2.04045,-1.156629 3.01296,-1.717072 a 0.7703789,3.4846044 67.038661 0 0 1.132,-0.8053 c 0.85035,-0.841114 1.6686,-1.65952 2.45279,-2.453821 a 2.7968604,5.6026383 59.363208 0 0 1.42202,-2.20362 c 0.33096,-1.162163 0.64056,-2.28044 0.9275,-3.352095 a 0.33300211,2.4904979 17.920079 0 0 0.25902,-1.424696 c -0.0284,-1.223642 -0.0673,-2.385071 -0.11744,-3.480269 a 1.496454,4.5279524 5.3888836 0 0 -0.56251,-2.45617 c -0.45012,-0.70836 -0.88699,-1.382094 -1.31004,-2.019691 0.0692,-0.467722 0.12884,-0.913944 0.17875,-1.338032 l -0.19255,0.5084 c 0.28248,-1.137834 0.46277,-2.112379 0.53248,-2.91007 0.02,-0.229256 0.0294,-0.449843 0.0295,-0.662101 l -0.71833,0.978229 c 0.91751,-2.128689 0.43745,-3.777353 0.56831,-4.565527 z"
       id="path1-0"
       inkscape:path-effect="#path-effect92-7"
       inkscape:original-d="m 133.849,34.0049 -2.584,2.3325 -1.452,3.1637 -1.068,3.5295 1.728,3.2576 -0.13,3.471 -1.1,3.2945 -2.544,2.3553 -3.059,1.6307 -3.317,0.2219 -2.525,2.1623 -3.165,0.3982 -2.914,1.2963 -3.099,0.761 -2.765,1.5956 -3.024,0.9537 -3.14,0.4384 -1.7019,2.4908 -2.0364,2.2256 -1.4915,2.7587 -2.7462,1.5146 -2.1127,2.5075 -2.9062,1.5185 -3.151,-1.2878 -3.2734,0.9332 -2.8574,1.9086 -0.9957,3.2888 -3.3327,-0.2939 -3.0439,1.3884 -3.3752,1.0253 -1.3622,3.2539 0.8274,3.3446 -1.7398,2.9739 3.5435,2.4392 0.961,4.193 0.5475,4.18 -2.0189,3.701 3.689,1.324 2.5326,2.991 1.4328,3.566 2.5613,2.866 -0.2177,4.073 -2.5417,3.191 1.1434,3.959 -1.5953,3.799 1.3433,3.662 1.5283,3.589 1.1981,4.147 3.9724,1.691 3.9629,1.687 2.793,3.279 4.0295,1.189 4.1498,0.655 4.452,0.937 4.106,-1.961 3.087,-3.01 3.28,-2.799 4.139,-0.374 3.878,1.497 3.735,1.602 3.391,2.24 3.992,1.799 2.391,3.668 -0.233,4.353 2.033,3.856 2.489,3.369 0.523,4.156 3.283,2.87 0.419,4.341 3.134,3.563 -0.323,4.734 -2.903,3.454 -0.964,4.407 -3.293,3.229 -4.566,0.649 -1.659,4.058 -1.958,3.924 -0.351,4.118 -0.845,4.046 -0.48,4.099 -0.698,4.067 -2.903,3.103 -4.24,0.273 -2.422,3.187 -1.277,3.794 -3.393,2.542 -4.203,-0.564 -2.179,3.304 -2.964,2.625 -2.896,2.443 -3.0584,2.237 -1.7034,3.497 -3.0813,2.374 -3.7115,1.962 -4.1493,-0.64 -2.0454,3.522 -3.2921,2.398"
       transform="matrix(0.94791188,0,0,0.97082284,5.3886342,3.6416568)" />
  </g>
</svg>
